/* XPM */
static char * shutdown_xpm[] = {
"32 32 151 2",
"  	c None",
". 	c #FDFBF8",
"+ 	c #E66B51",
"@ 	c #EA8970",
"# 	c #E15331",
"$ 	c #EB9179",
"% 	c #E25A38",
"& 	c #E46648",
"* 	c #E87A60",
"= 	c #E87359",
"- 	c #E5694D",
"; 	c #E98269",
"> 	c #E36241",
", 	c #ED9681",
"' 	c #BC7360",
") 	c #F0A390",
"! 	c #E2502A",
"~ 	c #EB8E78",
"{ 	c #E24A21",
"] 	c #B86B59",
"^ 	c #FCF3F0",
"/ 	c #C94221",
"( 	c #FDF8F5",
"_ 	c #DA4E29",
": 	c #BB715F",
"< 	c #E43C05",
"[ 	c #E95B2B",
"} 	c #E85421",
"| 	c #DF5230",
"1 	c #EE9E89",
"2 	c #F0A998",
"3 	c #F2BAA9",
"4 	c #E96133",
"5 	c #BB2A03",
"6 	c #E66845",
"7 	c #BD6A55",
"8 	c #E87150",
"9 	c #E44D20",
"0 	c #F3C1B3",
"a 	c #E14E29",
"b 	c #E45F41",
"c 	c #F09A7E",
"d 	c #FAE8E1",
"e 	c #FCF2ED",
"f 	c #ED9881",
"g 	c #B73D20",
"h 	c #BB320C",
"i 	c #E56849",
"j 	c #B23111",
"k 	c #E8785D",
"l 	c #CB4929",
"m 	c #E8430A",
"n 	c #F0A48B",
"o 	c #DA502D",
"p 	c #BA3815",
"q 	c #B53718",
"r 	c #E98066",
"s 	c #E9511C",
"t 	c #FBEEE9",
"u 	c #F6CFC4",
"v 	c #C06B55",
"w 	c #B32400",
"x 	c #E6633A",
"y 	c #DC3501",
"z 	c #EA896D",
"A 	c #EE967A",
"B 	c #D03305",
"C 	c #EB8B74",
"D 	c #CC2D00",
"E 	c #E44E24",
"F 	c #F5BEA9",
"G 	c #E4420C",
"H 	c #CB401B",
"I 	c #F4C6BA",
"J 	c #F9DCD1",
"K 	c #E55428",
"L 	c #DE441B",
"M 	c #D13C13",
"N 	c #F1B3A2",
"O 	c #F1AFA0",
"P 	c #F19471",
"Q 	c #EB7349",
"R 	c #ED9175",
"S 	c #EE7C53",
"T 	c #E85F31",
"U 	c #E95825",
"V 	c #E76E54",
"W 	c #E56545",
"X 	c #C63713",
"Y 	c #DE4620",
"Z 	c #CF380C",
"` 	c #C42800",
" .	c #D84A27",
"..	c #DB4E26",
"+.	c #D7411B",
"@.	c #F3BEB0",
"#.	c #F5C7BD",
"$.	c #F5C8BE",
"%.	c #B93919",
"&.	c #CF3F17",
"*.	c #C83E1C",
"=.	c #E13E08",
"-.	c #DE4312",
";.	c #DB3A12",
">.	c #D22F00",
",.	c #D0360B",
"'.	c #F0916E",
").	c #FCEDE7",
"!.	c #EC8665",
"~.	c #A01F00",
"{.	c #B6391A",
"].	c #E77152",
"^.	c #F9E1D9",
"/.	c #D9AFA5",
"(.	c #FBE7DF",
"_.	c #D5ACA1",
":.	c #E44C1C",
"<.	c #E94B14",
"[.	c #F3B39C",
"}.	c #F5BBA5",
"|.	c #E54610",
"1.	c #E54914",
"2.	c #DE491C",
"3.	c #DF400D",
"4.	c #E9B4A7",
"5.	c #BD705E",
"6.	c #E67258",
"7.	c #C12C08",
"8.	c #D74520",
"9.	c #C73D1B",
"0.	c #C4320D",
"a.	c #E25936",
"b.	c #F5C4B6",
"c.	c #F2BBAD",
"d.	c #BB3511",
"e.	c #AF2908",
"f.	c #B12E0D",
"g.	c #DE4D22",
"h.	c #E9480F",
"i.	c #BD6E59",
"j.	c #E17F66",
"k.	c #B05B46",
"l.	c #D0390D",
"m.	c #F8D9CE",
"n.	c #EFA896",
"o.	c #C4624A",
"p.	c #CD4726",
"q.	c #F0AA94",
"r.	c #C66750",
"s.	c #E65123",
"t.	c #F5CCC2",
"                                                                ",
"      I 1 f , , $ $ $ $ ~ ~ ~ ~ @ @ @ C C C @ ; ; ; r j.c.      ",
"    , * ~ @ ; * k = = 8 + + - i i & & > % % % % # !  .L X r.    ",
"  I * 1 ) ) f $ @ z ; ; * * k = = = = = 8 + i > b % |  .*.j /.  ",
"  1 @ 2 O 2 ) 1 $ @ @ @ ; ; r * * * * = = 8 + + > > # o / q ]   ",
"  1 @ ) O 2 ) f A @ @ ; , 2 0 u u 0 ) @ = ].+ i > > | | / q '   ",
"  , ; 1 ) ) f $ @ @ ) u ^ . . . . . . ( $.$ i > % % # | / {.'   ",
"  , * $ 1 f , @ @ N e . . ^.0 2 2 @.J ( . d 1 > % a.| | l g '   ",
"  , = @ $ $ @ @ u ( e #.~ + & & > b % * 0 t ( 3 % # # o l g '   ",
"  $ = ; R @ @ 3 ^ t ) * + & & b b % % # > $ d ^ f # | _ l g '   ",
"  $ = ; z ; ) e e 2 + + & & = , ~ - # # ! a $ t d r ! o l g '   ",
"  $ 8 * ; ; u . #.r V + & > , . . R # ! a a % 3 . @.a _ l g '   ",
"  ~ - k * $ ^ . ~ V + + & b , . . ~ ! ! { { { 8 ( ^ i _ l %.'   ",
"  @ - = * 2 . (.* + + + & & , . . R # K ! { { { J . z _ p.g '   ",
"  @ & 8 = @.. I V + + + & > , . . $ ! K E E 9 { [.. 2 ..8.%.'   ",
"  C > + = t.. O = + + - & & f . . $ K ! } E 9 { c . 3 { / %.'   ",
"  @ % - + $.. N + + + - & W , . . $ T ! } E 9 9 c . 3  .+.p :   ",
"  ; % & + 3 . #.8 + + - & & c . . $ [ K } 9 9 9 [.. n.2.+.p '   ",
"  ; # > - 1 . ^.= + + - - 6 c . . A [ [ } } 9 s m.. !.2.M d.:   ",
"  ; # % & r ^ ( ~ + Q - - - c . . P T [ } } s Q ( ^ 4 -.M h 5.  ",
"  ; a % > & I . $.k - - 6 6 c . . A T [ } } 4 F ( F 1.|.Z h 7   ",
"  * a # b > $ d e n - 6 6 6 k c A Q [ [ U U '.).(.S G 3.,.0.]   ",
"  * { # % b - ) ^ t n 8 W W x x 4 4 [ [ 4 P d ( '.<.G =.B 5 7   ",
"  * Y ! # % > - 0 ^ t b.!.6 x x 4 4 4 S F ).e }.s m < < B ` ]   ",
"  * L { # # % x - n d . . J 3 n n }.J ( . d P U m m < < D 5 7   ",
"  = ;.L a # # % % > @ 0 ^ . . . . . . e F S s h.m < < y B 5 ]   ",
"  k ;.L Y _ ! # # # # # ].@ N 3 0 q.z 6 s 1.<.m G < < y D w 7   ",
"  6.,.M +.Y _ _ | | _ _ o o ....s.g.:.:.-.|.G =.< y y >.` w ]   ",
"  4.7.X X 9.*./ / / / / / H H H H &.M &.l.Z Z D B >.D ` w ~._.  ",
"    o.e.f.j j j q q q {.j p p j p h h h 5 h 5 5 5 5 w w ~.k.    ",
"      /.' ] ] ] : ] : ] : : : : 7 : v i.7 7 v v v v 7 ] _.      ",
"                                                                "};
